<?xml version="1.0" standalone="no"?>
<!DOCTYPE svg PUBLIC "-//W3C//DTD SVG 20010904//EN"
 "http://www.w3.org/TR/2001/REC-SVG-20010904/DTD/svg10.dtd">
<svg version="1.0" xmlns="http://www.w3.org/2000/svg"
 width="32.000000pt" height="32.000000pt" viewBox="0 0 32.000000 32.000000"
 preserveAspectRatio="xMidYMid meet">

<g transform="translate(0.000000,32.000000) scale(0.100000,-0.100000)"
fill="#000000" stroke="none">
<path d="M45 205 c-28 -27 -33 -79 -11 -107 21 -28 68 -33 96 -10 14 11 22 23
18 27 -4 4 -14 0 -23 -9 -29 -29 -85 -15 -85 21 0 9 18 13 61 13 l61 0 -6 28
c-8 32 -40 62 -68 62 -10 0 -30 -11 -43 -25z m85 -14 c15 -30 14 -31 -40 -31
-34 0 -50 4 -50 13 0 38 71 52 90 18z"/>
<path d="M184 197 c32 -42 32 -44 1 -90 -30 -44 -19 -50 13 -7 13 16 26 30 30
30 4 0 16 -13 25 -30 10 -16 23 -30 29 -30 6 0 3 10 -6 22 -39 54 -40 64 -11
102 15 20 23 36 17 36 -6 0 -21 -14 -33 -31 l-22 -31 -24 31 c-14 17 -29 31
-34 31 -6 0 1 -15 15 -33z"/>
</g>
</svg>
